<mxfile host="app.diagrams.net" modified="2024-06-16T03:34:06.554Z" agent="Mozilla/5.0 (Windows NT 10.0; Win64; x64) AppleWebKit/537.36 (KHTML, like Gecko) Chrome/125.0.0.0 Safari/537.36" etag="acvi5tnIg0fxjdGmuWxh" version="24.5.4" type="device">
  <diagram name="Page-1" id="l7tpvIHaRfSWtI1ejCEi">
    <mxGraphModel dx="3617" dy="2456" grid="1" gridSize="10" guides="1" tooltips="1" connect="1" arrows="1" fold="1" page="1" pageScale="1" pageWidth="827" pageHeight="1169" math="0" shadow="0">
      <root>
        <mxCell id="0" />
        <mxCell id="1" parent="0" />
        <mxCell id="VSqztA9uVHl0h4g8EuHu-19" value="&lt;span style=&quot;font-size: 12px;&quot;&gt;No&lt;/span&gt;" style="text;html=1;align=center;verticalAlign=middle;whiteSpace=wrap;rounded=0;fontSize=16;" parent="1" vertex="1">
          <mxGeometry x="-614" y="-430" width="45" height="30" as="geometry" />
        </mxCell>
        <mxCell id="VSqztA9uVHl0h4g8EuHu-21" value="&lt;span style=&quot;font-size: 12px;&quot;&gt;Yes&lt;/span&gt;" style="text;html=1;align=center;verticalAlign=middle;whiteSpace=wrap;rounded=0;fontSize=16;" parent="1" vertex="1">
          <mxGeometry x="-730" y="-360" width="45" height="30" as="geometry" />
        </mxCell>
        <mxCell id="-nyK-jec36fBEq3TpRoe-21" style="edgeStyle=orthogonalEdgeStyle;rounded=0;orthogonalLoop=1;jettySize=auto;html=1;entryX=0.5;entryY=0;entryDx=0;entryDy=0;" edge="1" parent="1" source="VSqztA9uVHl0h4g8EuHu-30" target="-nyK-jec36fBEq3TpRoe-11">
          <mxGeometry relative="1" as="geometry" />
        </mxCell>
        <mxCell id="-nyK-jec36fBEq3TpRoe-46" style="edgeStyle=orthogonalEdgeStyle;rounded=0;orthogonalLoop=1;jettySize=auto;html=1;entryX=0;entryY=0.5;entryDx=0;entryDy=0;" edge="1" parent="1" source="VSqztA9uVHl0h4g8EuHu-30" target="-nyK-jec36fBEq3TpRoe-45">
          <mxGeometry relative="1" as="geometry" />
        </mxCell>
        <mxCell id="VSqztA9uVHl0h4g8EuHu-30" value="vehicles (Junction 1)?" style="rhombus;whiteSpace=wrap;html=1;" parent="1" vertex="1">
          <mxGeometry x="-761.5" y="-440" width="167" height="80" as="geometry" />
        </mxCell>
        <mxCell id="-nyK-jec36fBEq3TpRoe-13" style="edgeStyle=orthogonalEdgeStyle;rounded=0;orthogonalLoop=1;jettySize=auto;html=1;entryX=0.5;entryY=0;entryDx=0;entryDy=0;" edge="1" parent="1" source="-nyK-jec36fBEq3TpRoe-3" target="-nyK-jec36fBEq3TpRoe-4">
          <mxGeometry relative="1" as="geometry" />
        </mxCell>
        <mxCell id="-nyK-jec36fBEq3TpRoe-3" value="Start" style="ellipse;whiteSpace=wrap;html=1;" vertex="1" parent="1">
          <mxGeometry x="-720" y="-1120" width="84" height="50" as="geometry" />
        </mxCell>
        <mxCell id="-nyK-jec36fBEq3TpRoe-14" style="edgeStyle=orthogonalEdgeStyle;rounded=0;orthogonalLoop=1;jettySize=auto;html=1;entryX=0.5;entryY=0;entryDx=0;entryDy=0;" edge="1" parent="1" source="-nyK-jec36fBEq3TpRoe-4" target="-nyK-jec36fBEq3TpRoe-5">
          <mxGeometry relative="1" as="geometry" />
        </mxCell>
        <mxCell id="-nyK-jec36fBEq3TpRoe-4" value="Load pygameApp" style="rounded=0;whiteSpace=wrap;html=1;" vertex="1" parent="1">
          <mxGeometry x="-787" y="-1050" width="218" height="60" as="geometry" />
        </mxCell>
        <mxCell id="-nyK-jec36fBEq3TpRoe-15" style="edgeStyle=orthogonalEdgeStyle;rounded=0;orthogonalLoop=1;jettySize=auto;html=1;entryX=0.5;entryY=0;entryDx=0;entryDy=0;" edge="1" parent="1" source="-nyK-jec36fBEq3TpRoe-5" target="-nyK-jec36fBEq3TpRoe-6">
          <mxGeometry relative="1" as="geometry" />
        </mxCell>
        <mxCell id="-nyK-jec36fBEq3TpRoe-5" value="Initialize the parameter&amp;nbsp;" style="rounded=0;whiteSpace=wrap;html=1;" vertex="1" parent="1">
          <mxGeometry x="-787" y="-964" width="218" height="60" as="geometry" />
        </mxCell>
        <mxCell id="-nyK-jec36fBEq3TpRoe-16" style="edgeStyle=orthogonalEdgeStyle;rounded=0;orthogonalLoop=1;jettySize=auto;html=1;entryX=0.5;entryY=0;entryDx=0;entryDy=0;" edge="1" parent="1" source="-nyK-jec36fBEq3TpRoe-6" target="-nyK-jec36fBEq3TpRoe-7">
          <mxGeometry relative="1" as="geometry" />
        </mxCell>
        <mxCell id="-nyK-jec36fBEq3TpRoe-6" value="&lt;div&gt;-&lt;span style=&quot;background-color: initial;&quot;&gt;Display the 4-way intersections backgrounds&lt;/span&gt;&lt;/div&gt;&lt;div&gt;&lt;span style=&quot;background-color: initial;&quot;&gt;- Display traffic signals&lt;/span&gt;&lt;/div&gt;" style="rounded=0;whiteSpace=wrap;html=1;" vertex="1" parent="1">
          <mxGeometry x="-803" y="-880" width="250" height="60" as="geometry" />
        </mxCell>
        <mxCell id="-nyK-jec36fBEq3TpRoe-17" style="edgeStyle=orthogonalEdgeStyle;rounded=0;orthogonalLoop=1;jettySize=auto;html=1;entryX=0.5;entryY=0;entryDx=0;entryDy=0;" edge="1" parent="1" source="-nyK-jec36fBEq3TpRoe-7" target="-nyK-jec36fBEq3TpRoe-8">
          <mxGeometry relative="1" as="geometry" />
        </mxCell>
        <mxCell id="-nyK-jec36fBEq3TpRoe-7" value="Input videos (Threading)" style="rounded=0;whiteSpace=wrap;html=1;" vertex="1" parent="1">
          <mxGeometry x="-787" y="-795" width="218" height="60" as="geometry" />
        </mxCell>
        <mxCell id="-nyK-jec36fBEq3TpRoe-18" style="edgeStyle=orthogonalEdgeStyle;rounded=0;orthogonalLoop=1;jettySize=auto;html=1;entryX=0.5;entryY=0;entryDx=0;entryDy=0;" edge="1" parent="1" source="-nyK-jec36fBEq3TpRoe-8" target="-nyK-jec36fBEq3TpRoe-9">
          <mxGeometry relative="1" as="geometry" />
        </mxCell>
        <mxCell id="-nyK-jec36fBEq3TpRoe-8" value="Yolov8 detecting vehicles and traffic density" style="rounded=0;whiteSpace=wrap;html=1;" vertex="1" parent="1">
          <mxGeometry x="-787" y="-710" width="218" height="60" as="geometry" />
        </mxCell>
        <mxCell id="-nyK-jec36fBEq3TpRoe-19" style="edgeStyle=orthogonalEdgeStyle;rounded=0;orthogonalLoop=1;jettySize=auto;html=1;entryX=0.5;entryY=0;entryDx=0;entryDy=0;" edge="1" parent="1" source="-nyK-jec36fBEq3TpRoe-9" target="-nyK-jec36fBEq3TpRoe-10">
          <mxGeometry relative="1" as="geometry" />
        </mxCell>
        <mxCell id="-nyK-jec36fBEq3TpRoe-9" value="Generate detected numbers and types of vehicles to respective junction" style="rounded=0;whiteSpace=wrap;html=1;" vertex="1" parent="1">
          <mxGeometry x="-787" y="-620" width="218" height="60" as="geometry" />
        </mxCell>
        <mxCell id="-nyK-jec36fBEq3TpRoe-20" style="edgeStyle=orthogonalEdgeStyle;rounded=0;orthogonalLoop=1;jettySize=auto;html=1;entryX=0.5;entryY=0;entryDx=0;entryDy=0;" edge="1" parent="1" source="-nyK-jec36fBEq3TpRoe-10" target="VSqztA9uVHl0h4g8EuHu-30">
          <mxGeometry relative="1" as="geometry" />
        </mxCell>
        <mxCell id="-nyK-jec36fBEq3TpRoe-10" value="Calculating the green signal timing needed for the junction with the traffic density" style="rounded=0;whiteSpace=wrap;html=1;" vertex="1" parent="1">
          <mxGeometry x="-787" y="-530" width="218" height="60" as="geometry" />
        </mxCell>
        <mxCell id="-nyK-jec36fBEq3TpRoe-28" style="edgeStyle=orthogonalEdgeStyle;rounded=0;orthogonalLoop=1;jettySize=auto;html=1;entryX=0.5;entryY=0;entryDx=0;entryDy=0;" edge="1" parent="1" source="-nyK-jec36fBEq3TpRoe-11" target="-nyK-jec36fBEq3TpRoe-26">
          <mxGeometry relative="1" as="geometry" />
        </mxCell>
        <mxCell id="-nyK-jec36fBEq3TpRoe-11" value="Update green signal timing" style="rounded=0;whiteSpace=wrap;html=1;" vertex="1" parent="1">
          <mxGeometry x="-756.5" y="-330" width="157" height="40" as="geometry" />
        </mxCell>
        <mxCell id="-nyK-jec36fBEq3TpRoe-24" value="&lt;span style=&quot;font-size: 12px;&quot;&gt;Yes&lt;/span&gt;" style="text;html=1;align=center;verticalAlign=middle;whiteSpace=wrap;rounded=0;fontSize=16;" vertex="1" parent="1">
          <mxGeometry x="-730" y="-190" width="45" height="30" as="geometry" />
        </mxCell>
        <mxCell id="-nyK-jec36fBEq3TpRoe-25" style="edgeStyle=orthogonalEdgeStyle;rounded=0;orthogonalLoop=1;jettySize=auto;html=1;entryX=0.5;entryY=0;entryDx=0;entryDy=0;" edge="1" parent="1" source="-nyK-jec36fBEq3TpRoe-26" target="-nyK-jec36fBEq3TpRoe-27">
          <mxGeometry relative="1" as="geometry" />
        </mxCell>
        <mxCell id="-nyK-jec36fBEq3TpRoe-26" value="vehicles (Junction 2)?" style="rhombus;whiteSpace=wrap;html=1;" vertex="1" parent="1">
          <mxGeometry x="-761.5" y="-270" width="167" height="80" as="geometry" />
        </mxCell>
        <mxCell id="-nyK-jec36fBEq3TpRoe-27" value="Update green signal timing" style="rounded=0;whiteSpace=wrap;html=1;" vertex="1" parent="1">
          <mxGeometry x="-756.5" y="-160" width="157" height="40" as="geometry" />
        </mxCell>
        <mxCell id="-nyK-jec36fBEq3TpRoe-31" value="&lt;span style=&quot;font-size: 12px;&quot;&gt;Yes&lt;/span&gt;" style="text;html=1;align=center;verticalAlign=middle;whiteSpace=wrap;rounded=0;fontSize=16;" vertex="1" parent="1">
          <mxGeometry x="-348.5" y="-360" width="45" height="30" as="geometry" />
        </mxCell>
        <mxCell id="-nyK-jec36fBEq3TpRoe-32" style="edgeStyle=orthogonalEdgeStyle;rounded=0;orthogonalLoop=1;jettySize=auto;html=1;entryX=0.5;entryY=0;entryDx=0;entryDy=0;" edge="1" parent="1" source="-nyK-jec36fBEq3TpRoe-34" target="-nyK-jec36fBEq3TpRoe-36">
          <mxGeometry relative="1" as="geometry" />
        </mxCell>
        <mxCell id="-nyK-jec36fBEq3TpRoe-34" value="vehicles (Junction 3)?" style="rhombus;whiteSpace=wrap;html=1;" vertex="1" parent="1">
          <mxGeometry x="-380" y="-440" width="167" height="80" as="geometry" />
        </mxCell>
        <mxCell id="-nyK-jec36fBEq3TpRoe-35" style="edgeStyle=orthogonalEdgeStyle;rounded=0;orthogonalLoop=1;jettySize=auto;html=1;entryX=0.5;entryY=0;entryDx=0;entryDy=0;" edge="1" parent="1" source="-nyK-jec36fBEq3TpRoe-36" target="-nyK-jec36fBEq3TpRoe-39">
          <mxGeometry relative="1" as="geometry" />
        </mxCell>
        <mxCell id="-nyK-jec36fBEq3TpRoe-36" value="Update green signal timing" style="rounded=0;whiteSpace=wrap;html=1;" vertex="1" parent="1">
          <mxGeometry x="-375" y="-330" width="157" height="40" as="geometry" />
        </mxCell>
        <mxCell id="-nyK-jec36fBEq3TpRoe-37" value="&lt;span style=&quot;font-size: 12px;&quot;&gt;Yes&lt;/span&gt;" style="text;html=1;align=center;verticalAlign=middle;whiteSpace=wrap;rounded=0;fontSize=16;" vertex="1" parent="1">
          <mxGeometry x="-258" y="-100" width="45" height="30" as="geometry" />
        </mxCell>
        <mxCell id="-nyK-jec36fBEq3TpRoe-38" style="edgeStyle=orthogonalEdgeStyle;rounded=0;orthogonalLoop=1;jettySize=auto;html=1;entryX=0.5;entryY=0;entryDx=0;entryDy=0;" edge="1" parent="1" source="-nyK-jec36fBEq3TpRoe-39" target="-nyK-jec36fBEq3TpRoe-40">
          <mxGeometry relative="1" as="geometry" />
        </mxCell>
        <mxCell id="-nyK-jec36fBEq3TpRoe-39" value="vehicles (Junction 4)?" style="rhombus;whiteSpace=wrap;html=1;" vertex="1" parent="1">
          <mxGeometry x="-380" y="-270" width="167" height="80" as="geometry" />
        </mxCell>
        <mxCell id="-nyK-jec36fBEq3TpRoe-62" value="" style="edgeStyle=orthogonalEdgeStyle;rounded=0;orthogonalLoop=1;jettySize=auto;html=1;" edge="1" parent="1" source="-nyK-jec36fBEq3TpRoe-40" target="-nyK-jec36fBEq3TpRoe-61">
          <mxGeometry relative="1" as="geometry" />
        </mxCell>
        <mxCell id="-nyK-jec36fBEq3TpRoe-40" value="Update green signal timing" style="rounded=0;whiteSpace=wrap;html=1;" vertex="1" parent="1">
          <mxGeometry x="-375" y="-160" width="157" height="40" as="geometry" />
        </mxCell>
        <mxCell id="-nyK-jec36fBEq3TpRoe-56" style="edgeStyle=orthogonalEdgeStyle;rounded=0;orthogonalLoop=1;jettySize=auto;html=1;entryX=0.5;entryY=0;entryDx=0;entryDy=0;" edge="1" parent="1" source="-nyK-jec36fBEq3TpRoe-45" target="-nyK-jec36fBEq3TpRoe-26">
          <mxGeometry relative="1" as="geometry">
            <Array as="points">
              <mxPoint x="-491" y="-280" />
              <mxPoint x="-678" y="-280" />
            </Array>
          </mxGeometry>
        </mxCell>
        <mxCell id="-nyK-jec36fBEq3TpRoe-45" value="Green signal timing&amp;nbsp; = 0" style="rounded=0;whiteSpace=wrap;html=1;" vertex="1" parent="1">
          <mxGeometry x="-569" y="-420" width="157" height="40" as="geometry" />
        </mxCell>
        <mxCell id="-nyK-jec36fBEq3TpRoe-47" value="&lt;span style=&quot;font-size: 12px;&quot;&gt;No&lt;/span&gt;" style="text;html=1;align=center;verticalAlign=middle;whiteSpace=wrap;rounded=0;fontSize=16;" vertex="1" parent="1">
          <mxGeometry x="-614" y="-260" width="45" height="30" as="geometry" />
        </mxCell>
        <mxCell id="-nyK-jec36fBEq3TpRoe-48" style="edgeStyle=orthogonalEdgeStyle;rounded=0;orthogonalLoop=1;jettySize=auto;html=1;entryX=0;entryY=0.5;entryDx=0;entryDy=0;" edge="1" parent="1" target="-nyK-jec36fBEq3TpRoe-49">
          <mxGeometry relative="1" as="geometry">
            <mxPoint x="-595" y="-230" as="sourcePoint" />
          </mxGeometry>
        </mxCell>
        <mxCell id="-nyK-jec36fBEq3TpRoe-49" value="Green signal timing&amp;nbsp; = 0" style="rounded=0;whiteSpace=wrap;html=1;" vertex="1" parent="1">
          <mxGeometry x="-569" y="-250" width="157" height="40" as="geometry" />
        </mxCell>
        <mxCell id="-nyK-jec36fBEq3TpRoe-50" value="&lt;span style=&quot;font-size: 12px;&quot;&gt;No&lt;/span&gt;" style="text;html=1;align=center;verticalAlign=middle;whiteSpace=wrap;rounded=0;fontSize=16;" vertex="1" parent="1">
          <mxGeometry x="-232" y="-430" width="45" height="30" as="geometry" />
        </mxCell>
        <mxCell id="-nyK-jec36fBEq3TpRoe-51" style="edgeStyle=orthogonalEdgeStyle;rounded=0;orthogonalLoop=1;jettySize=auto;html=1;entryX=0;entryY=0.5;entryDx=0;entryDy=0;" edge="1" parent="1" target="-nyK-jec36fBEq3TpRoe-52">
          <mxGeometry relative="1" as="geometry">
            <mxPoint x="-213" y="-400" as="sourcePoint" />
          </mxGeometry>
        </mxCell>
        <mxCell id="-nyK-jec36fBEq3TpRoe-59" style="edgeStyle=orthogonalEdgeStyle;rounded=0;orthogonalLoop=1;jettySize=auto;html=1;entryX=0.5;entryY=0;entryDx=0;entryDy=0;" edge="1" parent="1" source="-nyK-jec36fBEq3TpRoe-52" target="-nyK-jec36fBEq3TpRoe-39">
          <mxGeometry relative="1" as="geometry">
            <Array as="points">
              <mxPoint x="-109" y="-280" />
              <mxPoint x="-297" y="-280" />
            </Array>
          </mxGeometry>
        </mxCell>
        <mxCell id="-nyK-jec36fBEq3TpRoe-52" value="Green signal timing&amp;nbsp; = 0" style="rounded=0;whiteSpace=wrap;html=1;" vertex="1" parent="1">
          <mxGeometry x="-187" y="-420" width="157" height="40" as="geometry" />
        </mxCell>
        <mxCell id="-nyK-jec36fBEq3TpRoe-53" value="&lt;span style=&quot;font-size: 12px;&quot;&gt;No&lt;/span&gt;" style="text;html=1;align=center;verticalAlign=middle;whiteSpace=wrap;rounded=0;fontSize=16;" vertex="1" parent="1">
          <mxGeometry x="-393.5" y="-100" width="45" height="30" as="geometry" />
        </mxCell>
        <mxCell id="-nyK-jec36fBEq3TpRoe-54" style="edgeStyle=orthogonalEdgeStyle;rounded=0;orthogonalLoop=1;jettySize=auto;html=1;entryX=0;entryY=0.5;entryDx=0;entryDy=0;" edge="1" parent="1" target="-nyK-jec36fBEq3TpRoe-55">
          <mxGeometry relative="1" as="geometry">
            <mxPoint x="-213" y="-230" as="sourcePoint" />
          </mxGeometry>
        </mxCell>
        <mxCell id="-nyK-jec36fBEq3TpRoe-63" style="edgeStyle=orthogonalEdgeStyle;rounded=0;orthogonalLoop=1;jettySize=auto;html=1;entryX=0.5;entryY=0;entryDx=0;entryDy=0;" edge="1" parent="1" source="-nyK-jec36fBEq3TpRoe-55" target="-nyK-jec36fBEq3TpRoe-61">
          <mxGeometry relative="1" as="geometry">
            <Array as="points">
              <mxPoint x="-109" y="-110" />
              <mxPoint x="-297" y="-110" />
            </Array>
          </mxGeometry>
        </mxCell>
        <mxCell id="-nyK-jec36fBEq3TpRoe-55" value="Green signal timing&amp;nbsp; = 0" style="rounded=0;whiteSpace=wrap;html=1;" vertex="1" parent="1">
          <mxGeometry x="-187" y="-250" width="157" height="40" as="geometry" />
        </mxCell>
        <mxCell id="-nyK-jec36fBEq3TpRoe-57" style="edgeStyle=orthogonalEdgeStyle;rounded=0;orthogonalLoop=1;jettySize=auto;html=1;entryX=0.531;entryY=0.005;entryDx=0;entryDy=0;entryPerimeter=0;" edge="1" parent="1" source="-nyK-jec36fBEq3TpRoe-27" target="-nyK-jec36fBEq3TpRoe-34">
          <mxGeometry relative="1" as="geometry">
            <Array as="points">
              <mxPoint x="-390" y="-140" />
              <mxPoint x="-390" y="-460" />
              <mxPoint x="-291" y="-460" />
            </Array>
          </mxGeometry>
        </mxCell>
        <mxCell id="-nyK-jec36fBEq3TpRoe-58" style="edgeStyle=orthogonalEdgeStyle;rounded=0;orthogonalLoop=1;jettySize=auto;html=1;exitX=1;exitY=0.5;exitDx=0;exitDy=0;entryX=0.531;entryY=0.005;entryDx=0;entryDy=0;entryPerimeter=0;" edge="1" parent="1" source="-nyK-jec36fBEq3TpRoe-49" target="-nyK-jec36fBEq3TpRoe-34">
          <mxGeometry relative="1" as="geometry">
            <Array as="points">
              <mxPoint x="-390" y="-230" />
              <mxPoint x="-390" y="-460" />
              <mxPoint x="-291" y="-460" />
            </Array>
          </mxGeometry>
        </mxCell>
        <mxCell id="-nyK-jec36fBEq3TpRoe-64" style="edgeStyle=orthogonalEdgeStyle;rounded=0;orthogonalLoop=1;jettySize=auto;html=1;exitX=1;exitY=0.5;exitDx=0;exitDy=0;entryX=1;entryY=0.5;entryDx=0;entryDy=0;" edge="1" parent="1" source="-nyK-jec36fBEq3TpRoe-61" target="-nyK-jec36fBEq3TpRoe-7">
          <mxGeometry relative="1" as="geometry">
            <Array as="points">
              <mxPoint x="-20" y="-60" />
              <mxPoint x="-20" y="-765" />
            </Array>
          </mxGeometry>
        </mxCell>
        <mxCell id="-nyK-jec36fBEq3TpRoe-66" style="edgeStyle=orthogonalEdgeStyle;rounded=0;orthogonalLoop=1;jettySize=auto;html=1;entryX=1;entryY=0.5;entryDx=0;entryDy=0;" edge="1" parent="1" source="-nyK-jec36fBEq3TpRoe-61" target="-nyK-jec36fBEq3TpRoe-65">
          <mxGeometry relative="1" as="geometry" />
        </mxCell>
        <mxCell id="-nyK-jec36fBEq3TpRoe-61" value="vehicles (All junction)?" style="rhombus;whiteSpace=wrap;html=1;" vertex="1" parent="1">
          <mxGeometry x="-380" y="-100" width="167" height="80" as="geometry" />
        </mxCell>
        <mxCell id="-nyK-jec36fBEq3TpRoe-65" value="End" style="ellipse;whiteSpace=wrap;html=1;" vertex="1" parent="1">
          <mxGeometry x="-497" y="-85" width="84" height="50" as="geometry" />
        </mxCell>
      </root>
    </mxGraphModel>
  </diagram>
</mxfile>
